<svg height="16" viewBox="-21 -21 682 682.66669" width="16" xmlns="http://www.w3.org/2000/svg" fill="white">
    <path d="m515.828125 240.851562c-13.546875-12.640624-32.121094-19.601562-52.300781-19.601562-13.199219 0-25.6875 3.964844-36.398438 10.777344-13.066406-16.457032-33.148437-27.027344-55.648437-27.027344-14.089844 0-27.242188 4.140625-38.308594 11.285156-13.082031-15.3125-32.519531-25.035156-54.191406-25.035156-20.515625 0-39.023438 8.726562-52.035157 22.652344-11.5-7.96875-25.441406-12.652344-40.464843-12.652344-39.285157 0-71.25 31.960938-71.25 71.25v50.734375c-4.832031 4.171875-9.175781 8.988281-12.871094 14.382813l-.765625 1.128906-49.351562 92.167968c-14.976563 26.453126-14.214844 54.613282 2.257812 83.679688 6.183594 11.820312 36.957031 68.476562 74.394531 100.773438 18.40625 15.886718 41.945313 24.632812 66.273438 24.632812h200.855469c78.136718 0 141.707031-63.125 141.707031-140.71875v-206.511719c0-20.300781-7.777344-38.738281-21.902344-51.917969zm-165.597656 35.925782c0-12.007813 9.53125-21.777344 21.25-21.777344s21.25 9.769531 21.25 21.777344v44.472656c0 11.71875-9.53125 21.25-21.25 21.25s-21.25-9.53125-21.25-21.25zm-92.5-14.277344c0-11.71875 9.53125-21.25 21.25-21.25s21.25 9.53125 21.25 21.25v47.609375c-8.652344-3.320313-17.894531-5.109375-27.242188-5.109375h-15.257812zm-71.25-11.25c11.71875 0 21.25 9.53125 21.25 21.25v32.5h-42.5v-32.5c0-11.71875 9.53125-21.25 21.25-21.25zm209.542969 338.75h-200.855469c-12.339844 0-24.277344-4.4375-33.617188-12.492188-25.59375-22.074218-51.5625-64.652343-62.878906-86.332031-.296875-.570312-.476563-.882812-.519531-.957031-9.246094-16.1875-7.742188-25.328125-2.316406-34.824219l48.4375-90.4375c4.707031-6.253906 12.089843-9.957031 19.964843-9.957031h108.75c7.003907 0 13.867188 2.90625 18.839844 7.964844 4.730469 4.824218 7.265625 11.054687 7.144531 17.535156-.261718 13.507812-11.472656 24.5-24.996094 24.5h-91.113281l-27.34375 52.203125 44.292969 23.195313 13.304688-25.398438h60.859374c19.78125 0 38.441407-7.632812 52.554688-21.488281 12.355469-12.140625 20-27.851563 21.953125-44.84375 7.214844 2.46875 14.949219 3.832031 22.996094 3.832031 17.828125 0 34.136719-6.597656 46.644531-17.457031 12.683594 10.871093 29.132812 17.457031 47.105469 17.457031 7.855469 0 15.414062-1.269531 22.5-3.59375v110.375c0 50.019531-41.140625 90.71875-91.707031 90.71875zm69.207031-247.5c-12.40625 0-22.5-10.09375-22.5-22.5v-25.539062c0-10.953126 8.890625-23.210938 20.796875-23.210938 11.699218 0 24.203125 5.65625 24.203125 21.519531v27.230469c0 12.40625-10.09375 22.5-22.5 22.5zm-120-231.25h-50v-111.25h50zm-179.28125 24.6875-27.5-112.5 48.5625-11.875 27.5 112.5zm-93.199219 64.433594-72.5-70.917969 34.964844-35.742187 72.5 70.917968zm403.078125-64.6875-48.691406-11.367188 26.25-112.5 48.691406 11.367188zm164.382813-6.230469-72.5 70.917969-34.960938-35.742188 72.5-70.917968zm0 0"/>
</svg>